<svg width="512" height="448" viewBox="0 0 512 448" fill="none" xmlns="http://www.w3.org/2000/svg">
<path d="M56.8889 0C25.5111 0 0 28.7 0 64V384C0 419.3 25.5111 448 56.8889 448H455.111C486.489 448 512 419.3 512 384V64C512 28.7 486.489 0 455.111 0H56.8889ZM128 256H184.889C224.178 256 256 291.8 256 336C256 344.8 249.6 352 241.778 352H71.1111C63.2889 352 56.8889 344.8 56.8889 336C56.8889 291.8 88.7111 256 128 256ZM213.333 160C213.333 195.3 187.822 224 156.444 224C125.067 224 99.5556 195.3 99.5556 160C99.5556 124.7 125.067 96 156.444 96C187.822 96 213.333 124.7 213.333 160ZM327.111 128H440.889C448.711 128 455.111 135.2 455.111 144C455.111 152.8 448.711 160 440.889 160H327.111C319.289 160 312.889 152.8 312.889 144C312.889 135.2 319.289 128 327.111 128ZM327.111 192H440.889C448.711 192 455.111 199.2 455.111 208C455.111 216.8 448.711 224 440.889 224H327.111C319.289 224 312.889 216.8 312.889 208C312.889 199.2 319.289 192 327.111 192ZM327.111 256H440.889C448.711 256 455.111 263.2 455.111 272C455.111 280.8 448.711 288 440.889 288H327.111C319.289 288 312.889 280.8 312.889 272C312.889 263.2 319.289 256 327.111 256Z" fill="white"/>
</svg>
