<svg width="103" height="103" viewBox="0 0 103 103" fill="none" xmlns="http://www.w3.org/2000/svg">
<g clip-path="url(#clip0_0_1)">
<path d="M100.2 24L53.1 0.400001C51.9 -0.199999 50.6 -0.199999 49.4 0.400001L2.3 24C0.9 24.7 0 26.1 0 27.7C0 29.3 0.9 30.7 2.3 31.4L49.4 54.9C50 55.2 50.6 55.3 51.3 55.3C51.9 55.3 52.6 55.2 53.2 54.9L100.3 31.4C101.7 30.7 102.6 29.3 102.6 27.7C102.5 26.1 101.6 24.7 100.2 24ZM51.2 46.6L13.4 27.7L51.2 8.8L89 27.7L51.2 46.6Z" fill="url(#paint0_linear_0_1)"/>
<path d="M102 72.9C101 70.9 98.5 70 96.4 71L51.2 93.7L6 71.1C4 70.1 1.5 70.9 0.399999 73C-0.600001 75 0.199999 77.5 2.3 78.6L49.4 102C50 102.3 50.6 102.4 51.3 102.4C51.9 102.4 52.6 102.3 53.2 102L100.3 78.5C102.2 77.4 103 75 102 72.9Z" fill="url(#paint1_linear_0_1)"/>
<path d="M102 49.4C101 47.4 98.5 46.5 96.4 47.5L51.2 70.1L6 47.5C4 46.5 1.5 47.3 0.399999 49.4C-0.600001 51.4 0.199999 53.9 2.3 55L49.4 78.5C50 78.8 50.6 78.9 51.3 78.9C51.9 78.9 52.6 78.8 53.2 78.5L100.3 55C102.2 53.9 103 51.4 102 49.4Z" fill="url(#paint2_linear_0_1)"/>
</g>
<defs>
<linearGradient id="paint0_linear_0_1" x1="-14.647" y1="27.6825" x2="656.557" y2="27.6825" gradientUnits="userSpaceOnUse">
<stop offset="0.0015024"/>
<stop offset="1" stop-color="#9A55FF"/>
</linearGradient>
<linearGradient id="paint1_linear_0_1" x1="-14.647" y1="86.5418" x2="656.557" y2="86.5418" gradientUnits="userSpaceOnUse">
<stop offset="0.0015024"/>
<stop offset="1" stop-color="#9A55FF"/>
</linearGradient>
<linearGradient id="paint2_linear_0_1" x1="-14.647" y1="62.9979" x2="656.557" y2="62.9979" gradientUnits="userSpaceOnUse">
<stop offset="0.0015024"/>
<stop offset="1" stop-color="#9A55FF"/>
</linearGradient>
<clipPath id="clip0_0_1">
<rect width="102.5" height="102.5" fill="white"/>
</clipPath>
</defs>
</svg>
