<svg width="637" height="141" viewBox="0 0 637 141" fill="none" xmlns="http://www.w3.org/2000/svg">
<rect width="637" height="141" fill="#F5F5F5"/>
<g clip-path="url(#clip0_0_1)">
<path d="M100.2 30L53.1 6.5C51.9 5.9 50.6 5.9 49.4 6.5L2.3 30C0.9 30.7 0 32.2 0 33.7C0 35.3 0.9 36.7 2.3 37.4L49.4 61C50 61.3 50.6 61.4 51.3 61.4C51.9 61.4 52.6 61.3 53.2 61L100.3 37.5C101.7 36.8 102.6 35.4 102.6 33.8C102.5 32.2 101.6 30.7 100.2 30ZM51.2 52.7L13.4 33.7L51.2 14.8L89 33.7L51.2 52.7Z" fill="url(#paint0_linear_0_1)"/>
<path d="M102 79C101 77 98.5 76.1 96.4 77.1L51.2 99.8L6.00001 77.1C4.00001 76.1 1.50001 76.9 0.400011 79C-0.599989 81 0.200011 83.5 2.30001 84.6L49.4 108.1C50 108.4 50.6 108.5 51.3 108.5C51.9 108.5 52.6 108.4 53.2 108.1L100.3 84.6C102.2 83.5 103 81 102 79Z" fill="url(#paint1_linear_0_1)"/>
<path d="M102 55.4C101 53.4 98.5 52.5 96.4 53.5L51.2 76.2L6.00001 53.6C4.00001 52.6 1.50001 53.4 0.400011 55.5C-0.599989 57.5 0.200011 60 2.30001 61.1L49.4 84.6C50 84.9 50.6 85 51.3 85C51.9 85 52.6 84.9 53.2 84.6L100.2 61C102.2 60 103 57.5 102 55.4Z" fill="url(#paint2_linear_0_1)"/>
<path d="M180.496 34.92V81H173.904V49.416C173.904 48.904 173.915 48.3493 173.936 47.752C173.979 47.1333 174.032 46.5147 174.096 45.896L159.28 73.256C158.704 74.3867 157.819 74.952 156.624 74.952H155.568C154.352 74.952 153.467 74.3867 152.912 73.256L137.872 45.832C137.936 46.4507 137.979 47.0693 138 47.688C138.043 48.3067 138.064 48.8827 138.064 49.416V81H131.472V34.92H137.072C137.733 34.92 138.245 34.984 138.608 35.112C138.971 35.2187 139.301 35.5707 139.6 36.168L154.384 62.952C154.704 63.5707 155.003 64.2107 155.28 64.872C155.579 65.512 155.845 66.1733 156.08 66.856C156.336 66.1733 156.603 65.5013 156.88 64.84C157.179 64.1573 157.488 63.5067 157.808 62.888L172.368 36.168C172.667 35.5707 172.997 35.2187 173.36 35.112C173.723 34.984 174.235 34.92 174.896 34.92H180.496ZM203.242 47.848C205.652 47.848 207.828 48.2427 209.77 49.032C211.732 49.8213 213.396 50.9413 214.762 52.392C216.148 53.8427 217.215 55.6027 217.962 57.672C218.708 59.7413 219.082 62.0667 219.082 64.648C219.082 67.2293 218.708 69.5547 217.962 71.624C217.215 73.6933 216.148 75.464 214.762 76.936C213.396 78.3867 211.732 79.5067 209.77 80.296C207.828 81.0853 205.652 81.48 203.242 81.48C200.81 81.48 198.612 81.0853 196.65 80.296C194.708 79.5067 193.044 78.3867 191.658 76.936C190.271 75.464 189.204 73.6933 188.458 71.624C187.711 69.5547 187.338 67.2293 187.338 64.648C187.338 62.0667 187.711 59.7413 188.458 57.672C189.204 55.6027 190.271 53.8427 191.658 52.392C193.044 50.9413 194.708 49.8213 196.65 49.032C198.612 48.2427 200.81 47.848 203.242 47.848ZM203.242 76.104C206.186 76.104 208.372 75.1227 209.802 73.16C211.252 71.176 211.978 68.3493 211.978 64.68C211.978 61.0107 211.252 58.184 209.802 56.2C208.372 54.1947 206.186 53.192 203.242 53.192C200.255 53.192 198.036 54.1947 196.586 56.2C195.135 58.184 194.41 61.0107 194.41 64.68C194.41 68.3493 195.135 71.176 196.586 73.16C198.036 75.1227 200.255 76.104 203.242 76.104ZM225.692 81V48.36H229.852C230.791 48.36 231.388 48.7973 231.644 49.672L232.092 52.52C232.689 51.8373 233.308 51.2187 233.948 50.664C234.588 50.088 235.271 49.5973 235.996 49.192C236.743 48.7653 237.532 48.4347 238.364 48.2C239.217 47.9653 240.135 47.848 241.116 47.848C242.161 47.848 243.121 47.9973 243.996 48.296C244.871 48.5947 245.639 49.0213 246.3 49.576C246.983 50.1307 247.569 50.8027 248.06 51.592C248.551 52.3813 248.956 53.2667 249.276 54.248C249.767 53.1173 250.385 52.1467 251.132 51.336C251.879 50.5253 252.711 49.864 253.628 49.352C254.545 48.84 255.516 48.4667 256.54 48.232C257.585 47.976 258.641 47.848 259.708 47.848C261.457 47.848 263.015 48.1253 264.38 48.68C265.767 49.2347 266.929 50.0453 267.868 51.112C268.828 52.1573 269.553 53.448 270.044 54.984C270.535 56.52 270.78 58.2693 270.78 60.232V81H263.9V60.232C263.9 57.928 263.399 56.2 262.396 55.048C261.415 53.8747 259.953 53.288 258.012 53.288C257.137 53.288 256.316 53.4373 255.548 53.736C254.78 54.0347 254.108 54.472 253.532 55.048C252.956 55.624 252.497 56.3493 252.156 57.224C251.836 58.0773 251.676 59.08 251.676 60.232V81H244.796V60.232C244.796 57.8427 244.316 56.0933 243.356 54.984C242.396 53.8533 240.988 53.288 239.132 53.288C237.852 53.288 236.668 53.6187 235.58 54.28C234.492 54.92 233.489 55.8053 232.572 56.936V81H225.692ZM306.113 74.504C306.86 74.504 307.446 74.728 307.873 75.176C308.3 75.6027 308.513 76.1573 308.513 76.84V81H277.345V78.664C277.345 78.1947 277.441 77.704 277.633 77.192C277.825 76.68 278.134 76.2107 278.561 75.784L292.897 61.416C294.113 60.2 295.19 59.0373 296.129 57.928C297.089 56.8187 297.9 55.7093 298.561 54.6C299.244 53.4907 299.756 52.3707 300.097 51.24C300.46 50.088 300.641 48.8827 300.641 47.624C300.641 46.408 300.449 45.3413 300.065 44.424C299.702 43.4853 299.19 42.7173 298.529 42.12C297.889 41.5013 297.11 41.0427 296.193 40.744C295.297 40.424 294.305 40.264 293.217 40.264C292.172 40.264 291.201 40.4133 290.305 40.712C289.43 41.0107 288.641 41.4267 287.937 41.96C287.254 42.4933 286.678 43.1333 286.209 43.88C285.761 44.6053 285.43 45.4053 285.217 46.28C284.897 47.1547 284.481 47.7413 283.969 48.04C283.478 48.3387 282.753 48.4027 281.793 48.232L278.177 47.592C278.497 45.416 279.094 43.5067 279.969 41.864C280.865 40.2213 281.985 38.856 283.329 37.768C284.673 36.6587 286.209 35.8267 287.937 35.272C289.686 34.696 291.574 34.408 293.601 34.408C295.649 34.408 297.526 34.7173 299.233 35.336C300.961 35.9333 302.444 36.7973 303.681 37.928C304.94 39.0373 305.921 40.392 306.625 41.992C307.329 43.592 307.681 45.3947 307.681 47.4C307.681 49.1067 307.425 50.6853 306.913 52.136C306.422 53.5867 305.75 54.9733 304.897 56.296C304.044 57.6187 303.041 58.9093 301.889 60.168C300.758 61.4053 299.564 62.664 298.305 63.944L287.169 75.336C288.086 75.08 289.004 74.8773 289.921 74.728C290.86 74.5787 291.745 74.504 292.577 74.504H306.113ZM333.99 75.08C335.675 75.08 337.094 74.888 338.246 74.504C339.419 74.0987 340.369 73.5547 341.094 72.872C341.841 72.1893 342.374 71.3893 342.694 70.472C343.035 69.5333 343.206 68.5307 343.206 67.464C343.206 65.288 342.459 63.5813 340.966 62.344C339.494 61.0853 337.158 60.456 333.958 60.456H324.71V75.08H333.99ZM324.71 40.776V55.176H332.198C335.398 55.176 337.787 54.5573 339.366 53.32C340.945 52.0827 341.734 50.3013 341.734 47.976C341.734 45.4373 340.987 43.6027 339.494 42.472C338.022 41.3413 335.707 40.776 332.55 40.776H324.71ZM332.55 34.92C335.494 34.92 338.011 35.208 340.102 35.784C342.193 36.3387 343.91 37.1387 345.254 38.184C346.598 39.2293 347.579 40.5093 348.198 42.024C348.838 43.5173 349.158 45.2027 349.158 47.08C349.158 48.168 348.987 49.224 348.646 50.248C348.326 51.2507 347.814 52.2 347.11 53.096C346.427 53.9707 345.563 54.76 344.518 55.464C343.473 56.168 342.235 56.7547 340.806 57.224C347.334 58.6107 350.598 62.0773 350.598 67.624C350.598 69.5867 350.225 71.3893 349.478 73.032C348.753 74.6533 347.686 76.0613 346.278 77.256C344.891 78.4293 343.174 79.3467 341.126 80.008C339.078 80.6693 336.742 81 334.118 81H317.222V34.92H332.55Z" fill="#4C2061"/>
</g>
<defs>
<linearGradient id="paint0_linear_0_1" x1="-14.647" y1="33.7483" x2="656.557" y2="33.7483" gradientUnits="userSpaceOnUse">
<stop offset="0.0015024" stop-color="#4C2061"/>
<stop offset="1" stop-color="#9A55FF"/>
</linearGradient>
<linearGradient id="paint1_linear_0_1" x1="-14.647" y1="92.6076" x2="656.557" y2="92.6076" gradientUnits="userSpaceOnUse">
<stop offset="0.0015024" stop-color="#4C2061"/>
<stop offset="1" stop-color="#9A55FF"/>
</linearGradient>
<linearGradient id="paint2_linear_0_1" x1="-14.647" y1="69.0637" x2="656.557" y2="69.0637" gradientUnits="userSpaceOnUse">
<stop offset="0.0015024" stop-color="#4C2061"/>
<stop offset="1" stop-color="#9A55FF"/>
</linearGradient>
<clipPath id="clip0_0_1">
<rect width="636.1" height="140.4" fill="white"/>
</clipPath>
</defs>
</svg>
