<svg width="637" height="141" viewBox="0 0 637 141" fill="none" xmlns="http://www.w3.org/2000/svg">
<rect width="637" height="141" fill="#F5F5F5"/>
<g clip-path="url(#clip0_0_1)">
<path d="M100.2 30L53.1 6.5C51.9 5.9 50.6 5.9 49.4 6.5L2.3 30C0.9 30.7 0 32.2 0 33.7C0 35.3 0.9 36.7 2.3 37.4L49.4 61C50 61.3 50.6 61.4 51.3 61.4C51.9 61.4 52.6 61.3 53.2 61L100.3 37.5C101.7 36.8 102.6 35.4 102.6 33.8C102.5 32.2 101.6 30.7 100.2 30ZM51.2 52.7L13.4 33.7L51.2 14.8L89 33.7L51.2 52.7Z" fill="url(#paint0_linear_0_1)"/>
<path d="M102 79C101 77 98.5 76.1 96.4 77.1L51.2 99.8L6.00001 77.1C4.00001 76.1 1.50001 76.9 0.400011 79C-0.599989 81 0.200011 83.5 2.30001 84.6L49.4 108.1C50 108.4 50.6 108.5 51.3 108.5C51.9 108.5 52.6 108.4 53.2 108.1L100.3 84.6C102.2 83.5 103 81 102 79Z" fill="url(#paint1_linear_0_1)"/>
<path d="M102 55.4C101 53.4 98.5 52.5 96.4 53.5L51.2 76.2L6.00001 53.6C4.00001 52.6 1.50001 53.4 0.400011 55.5C-0.599989 57.5 0.200011 60 2.30001 61.1L49.4 84.6C50 84.9 50.6 85 51.3 85C51.9 85 52.6 84.9 53.2 84.6L100.2 61C102.2 60 103 57.5 102 55.4Z" fill="url(#paint2_linear_0_1)"/>
<path d="M213.744 20.88V90H203.856V42.624C203.856 41.856 203.872 41.024 203.904 40.128C203.968 39.2 204.048 38.272 204.144 37.344L181.92 78.384C181.056 80.08 179.728 80.928 177.936 80.928H176.352C174.528 80.928 173.2 80.08 172.368 78.384L149.808 37.248C149.904 38.176 149.968 39.104 150 40.032C150.064 40.96 150.096 41.824 150.096 42.624V90H140.208V20.88H148.608C149.6 20.88 150.368 20.976 150.912 21.168C151.456 21.328 151.952 21.856 152.4 22.752L174.576 62.928C175.056 63.856 175.504 64.816 175.92 65.808C176.368 66.768 176.768 67.76 177.12 68.784C177.504 67.76 177.904 66.752 178.32 65.76C178.768 64.736 179.232 63.76 179.712 62.832L201.552 22.752C202 21.856 202.496 21.328 203.04 21.168C203.584 20.976 204.352 20.88 205.344 20.88H213.744ZM247.862 40.272C251.478 40.272 254.742 40.864 257.654 42.048C260.598 43.232 263.094 44.912 265.142 47.088C267.222 49.264 268.822 51.904 269.942 55.008C271.062 58.112 271.622 61.6 271.622 65.472C271.622 69.344 271.062 72.832 269.942 75.936C268.822 79.04 267.222 81.696 265.142 83.904C263.094 86.08 260.598 87.76 257.654 88.944C254.742 90.128 251.478 90.72 247.862 90.72C244.214 90.72 240.918 90.128 237.974 88.944C235.062 87.76 232.566 86.08 230.486 83.904C228.406 81.696 226.806 79.04 225.686 75.936C224.566 72.832 224.006 69.344 224.006 65.472C224.006 61.6 224.566 58.112 225.686 55.008C226.806 51.904 228.406 49.264 230.486 47.088C232.566 44.912 235.062 43.232 237.974 42.048C240.918 40.864 244.214 40.272 247.862 40.272ZM247.862 82.656C252.278 82.656 255.558 81.184 257.702 78.24C259.878 75.264 260.966 71.024 260.966 65.52C260.966 60.016 259.878 55.776 257.702 52.8C255.558 49.792 252.278 48.288 247.862 48.288C243.382 48.288 240.054 49.792 237.878 52.8C235.702 55.776 234.614 60.016 234.614 65.52C234.614 71.024 235.702 75.264 237.878 78.24C240.054 81.184 243.382 82.656 247.862 82.656ZM281.538 90V41.04H287.778C289.186 41.04 290.082 41.696 290.466 43.008L291.138 47.28C292.034 46.256 292.962 45.328 293.922 44.496C294.882 43.632 295.906 42.896 296.994 42.288C298.114 41.648 299.298 41.152 300.546 40.8C301.826 40.448 303.202 40.272 304.674 40.272C306.242 40.272 307.682 40.496 308.994 40.944C310.306 41.392 311.458 42.032 312.45 42.864C313.474 43.696 314.354 44.704 315.09 45.888C315.826 47.072 316.434 48.4 316.914 49.872C317.65 48.176 318.578 46.72 319.698 45.504C320.818 44.288 322.066 43.296 323.442 42.528C324.818 41.76 326.274 41.2 327.81 40.848C329.378 40.464 330.962 40.272 332.562 40.272C335.186 40.272 337.522 40.688 339.57 41.52C341.65 42.352 343.394 43.568 344.802 45.168C346.242 46.736 347.33 48.672 348.066 50.976C348.802 53.28 349.17 55.904 349.17 58.848V90H338.85V58.848C338.85 55.392 338.098 52.8 336.594 51.072C335.122 49.312 332.93 48.432 330.018 48.432C328.706 48.432 327.474 48.656 326.322 49.104C325.17 49.552 324.162 50.208 323.298 51.072C322.434 51.936 321.746 53.024 321.234 54.336C320.754 55.616 320.514 57.12 320.514 58.848V90H310.194V58.848C310.194 55.264 309.474 52.64 308.034 50.976C306.594 49.28 304.482 48.432 301.698 48.432C299.778 48.432 298.002 48.928 296.37 49.92C294.738 50.88 293.234 52.208 291.858 53.904V90H281.538ZM402.17 80.256C403.29 80.256 404.17 80.592 404.81 81.264C405.45 81.904 405.77 82.736 405.77 83.76V90H359.018V86.496C359.018 85.792 359.162 85.056 359.45 84.288C359.738 83.52 360.202 82.816 360.842 82.176L382.346 60.624C384.17 58.8 385.786 57.056 387.194 55.392C388.634 53.728 389.85 52.064 390.842 50.4C391.866 48.736 392.634 47.056 393.146 45.36C393.69 43.632 393.962 41.824 393.962 39.936C393.962 38.112 393.674 36.512 393.098 35.136C392.554 33.728 391.786 32.576 390.794 31.68C389.834 30.752 388.666 30.064 387.29 29.616C385.946 29.136 384.458 28.896 382.826 28.896C381.258 28.896 379.802 29.12 378.458 29.568C377.146 30.016 375.962 30.64 374.906 31.44C373.882 32.24 373.018 33.2 372.314 34.32C371.642 35.408 371.146 36.608 370.826 37.92C370.346 39.232 369.722 40.112 368.954 40.56C368.218 41.008 367.13 41.104 365.69 40.848L360.266 39.888C360.746 36.624 361.642 33.76 362.954 31.296C364.298 28.832 365.978 26.784 367.994 25.152C370.01 23.488 372.314 22.24 374.906 21.408C377.53 20.544 380.362 20.112 383.402 20.112C386.474 20.112 389.29 20.576 391.85 21.504C394.442 22.4 396.666 23.696 398.522 25.392C400.41 27.056 401.882 29.088 402.938 31.488C403.993 33.888 404.521 36.592 404.521 39.6C404.521 42.16 404.138 44.528 403.37 46.704C402.634 48.88 401.626 50.96 400.346 52.944C399.066 54.928 397.562 56.864 395.834 58.752C394.138 60.608 392.346 62.496 390.458 64.416L373.754 81.504C375.13 81.12 376.506 80.816 377.882 80.592C379.29 80.368 380.618 80.256 381.866 80.256H402.17ZM443.985 81.12C446.513 81.12 448.641 80.832 450.369 80.256C452.129 79.648 453.553 78.832 454.641 77.808C455.761 76.784 456.561 75.584 457.041 74.208C457.553 72.8 457.809 71.296 457.809 69.696C457.809 66.432 456.689 63.872 454.449 62.016C452.241 60.128 448.737 59.184 443.937 59.184H430.065V81.12H443.985ZM430.065 29.664V51.264H441.297C446.097 51.264 449.681 50.336 452.049 48.48C454.417 46.624 455.601 43.952 455.601 40.464C455.601 36.656 454.481 33.904 452.241 32.208C450.033 30.512 446.561 29.664 441.825 29.664H430.065ZM441.825 20.88C446.241 20.88 450.017 21.312 453.153 22.176C456.289 23.008 458.865 24.208 460.881 25.776C462.897 27.344 464.369 29.264 465.297 31.536C466.257 33.776 466.737 36.304 466.737 39.12C466.737 40.752 466.481 42.336 465.969 43.872C465.489 45.376 464.721 46.8 463.665 48.144C462.641 49.456 461.345 50.64 459.777 51.696C458.209 52.752 456.353 53.632 454.209 54.336C464.001 56.416 468.897 61.616 468.897 69.936C468.897 72.88 468.337 75.584 467.217 78.048C466.129 80.48 464.529 82.592 462.417 84.384C460.337 86.144 457.761 87.52 454.689 88.512C451.617 89.504 448.113 90 444.177 90H418.833V20.88H441.825Z" fill="#4C2061"/>
</g>
<defs>
<linearGradient id="paint0_linear_0_1" x1="-14.647" y1="33.7483" x2="656.557" y2="33.7483" gradientUnits="userSpaceOnUse">
<stop offset="0.0015024" stop-color="#4C2061"/>
<stop offset="1" stop-color="#9A55FF"/>
</linearGradient>
<linearGradient id="paint1_linear_0_1" x1="-14.647" y1="92.6076" x2="656.557" y2="92.6076" gradientUnits="userSpaceOnUse">
<stop offset="0.0015024" stop-color="#4C2061"/>
<stop offset="1" stop-color="#9A55FF"/>
</linearGradient>
<linearGradient id="paint2_linear_0_1" x1="-14.647" y1="69.0637" x2="656.557" y2="69.0637" gradientUnits="userSpaceOnUse">
<stop offset="0.0015024" stop-color="#4C2061"/>
<stop offset="1" stop-color="#9A55FF"/>
</linearGradient>
<clipPath id="clip0_0_1">
<rect width="636.1" height="140.4" fill="white"/>
</clipPath>
</defs>
</svg>
